<?xml version="1.0" encoding="UTF-8"?>
<svg id="Ebene_1" data-name="Ebene 1" xmlns="http://www.w3.org/2000/svg" viewBox="0 0 316.7 19.66">
  <path d="m13.34,18.62c-.66.32-1.44.57-2.36.76-.92.18-1.88.28-2.87.28-1.42,0-2.65-.18-3.67-.55-1.02-.37-1.86-.93-2.52-1.68-.66-.75-1.14-1.71-1.45-2.88s-.47-2.56-.47-4.18c0-3.26.66-5.64,1.97-7.13,1.31-1.49,3.38-2.23,6.22-2.23.85,0,1.7.08,2.54.24.85.16,1.59.38,2.23.65l-.29,2.21c-.62-.27-1.3-.48-2.04-.62s-1.51-.22-2.33-.22c-1.01,0-1.87.11-2.59.34-.72.22-1.31.61-1.78,1.15-.46.54-.8,1.27-1.02,2.18-.22.91-.32,2.05-.32,3.41s.1,2.44.3,3.32c.2.89.52,1.61.95,2.16.43.55.99.94,1.68,1.18s1.53.35,2.52.35c1.18,0,2.22-.17,3.12-.5v-7.06h2.18v8.83Z" style="fill: #f6f6f6; stroke-width: 0px;"/>
  <path d="m22.68,19.61c-2.35,0-4.05-.64-5.09-1.91s-1.56-3.24-1.56-5.92c0-2.26.49-3.99,1.46-5.2.98-1.21,2.46-1.81,4.44-1.81.85,0,1.62.13,2.32.38.7.26,1.29.66,1.78,1.2.49.54.87,1.23,1.14,2.05.27.82.41,1.81.41,2.96,0,.18,0,.36-.01.56,0,.2-.02.38-.04.54h-9.17c.03.94.14,1.74.34,2.39.19.65.48,1.17.85,1.56.38.39.84.68,1.4.85.56.18,1.22.26,1.99.26.72,0,1.4-.08,2.03-.23.63-.15,1.25-.38,1.86-.68l.26,1.92c-.61.32-1.28.58-2.02.77-.74.19-1.54.29-2.4.29Zm2.81-8.69c-.02-.75-.11-1.39-.29-1.92-.18-.53-.42-.96-.72-1.3-.3-.34-.67-.58-1.1-.73-.43-.15-.9-.23-1.42-.23-1.22,0-2.11.34-2.68,1.02-.57.68-.89,1.73-.97,3.16h7.18Z" style="fill: #f6f6f6; stroke-width: 0px;"/>
  <path d="m46.87,19.32v-9.5c0-1.01-.26-1.75-.79-2.22-.53-.47-1.26-.71-2.18-.71-.77,0-1.43.22-1.99.67s-.84,1.12-.84,2.02v9.74h-2.26v-9.74c0-.48-.07-.89-.22-1.24-.14-.34-.34-.62-.6-.84-.26-.22-.55-.38-.89-.48s-.7-.16-1.1-.16c-.61,0-1.19.15-1.74.44-.55.3-.97.68-1.26,1.16v10.85h-2.28V5.06l1.63-.12.41,1.54h.07c.43-.53.98-.94,1.63-1.24.66-.3,1.34-.44,2.06-.44,1.9,0,3.19.73,3.86,2.18h.05c.42-.75.97-1.31,1.67-1.67.7-.36,1.48-.54,2.36-.54.69,0,1.32.1,1.9.31.58.21,1.07.52,1.48.94.41.42.72.94.95,1.56s.34,1.36.34,2.21v9.53h-2.26Z" style="fill: #f6f6f6; stroke-width: 0px;"/>
  <path d="m58.73,19.61c-2.35,0-4.05-.64-5.09-1.91s-1.56-3.24-1.56-5.92c0-2.26.49-3.99,1.46-5.2.98-1.21,2.46-1.81,4.44-1.81.85,0,1.62.13,2.32.38.7.26,1.29.66,1.78,1.2.49.54.87,1.23,1.14,2.05.27.82.41,1.81.41,2.96,0,.18,0,.36-.01.56,0,.2-.02.38-.04.54h-9.17c.03.94.14,1.74.34,2.39.19.65.48,1.17.85,1.56.38.39.84.68,1.4.85.56.18,1.22.26,1.99.26.72,0,1.4-.08,2.03-.23.63-.15,1.25-.38,1.86-.68l.26,1.92c-.61.32-1.28.58-2.02.77-.74.19-1.54.29-2.4.29Zm2.81-8.69c-.02-.75-.11-1.39-.29-1.92-.18-.53-.42-.96-.72-1.3-.3-.34-.67-.58-1.1-.73-.43-.15-.9-.23-1.42-.23-1.22,0-2.11.34-2.68,1.02-.57.68-.89,1.73-.97,3.16h7.18Z" style="fill: #f6f6f6; stroke-width: 0px;"/>
  <path d="m69.98,1.39c0,.82-.49,1.22-1.46,1.22-.5,0-.86-.09-1.1-.26-.24-.18-.36-.5-.36-.96,0-.82.49-1.22,1.46-1.22s1.46.41,1.46,1.22Zm-2.62,17.93V5.09l2.28-.12v14.35h-2.28Z" style="fill: #f6f6f6; stroke-width: 0px;"/>
  <path d="m83.11,19.32v-9.46c0-1.06-.28-1.82-.83-2.29-.55-.47-1.36-.71-2.41-.71-.3,0-.62.04-.94.11-.32.07-.63.18-.94.31-.3.14-.58.3-.84.5-.26.2-.46.43-.62.68v10.85h-2.28V5.06l1.63-.12.38,1.51h.07c.5-.54,1.11-.96,1.84-1.26.73-.3,1.5-.44,2.32-.44,1.52,0,2.71.42,3.58,1.27.86.85,1.3,2.13,1.3,3.84v9.46h-2.26Z" style="fill: #f6f6f6; stroke-width: 0px;"/>
  <path d="m97.92,15.12c0,1.34-.4,2.43-1.2,3.25-.8.82-2.08,1.24-3.84,1.24-.86,0-1.67-.1-2.42-.3-.75-.2-1.41-.5-1.97-.9l.29-1.97c.54.42,1.19.73,1.93.94s1.46.31,2.15.31c1.06,0,1.81-.22,2.27-.67.46-.45.68-1.01.68-1.68,0-.54-.18-.97-.54-1.28s-.81-.58-1.36-.79c-.54-.22-1.13-.42-1.76-.61-.63-.19-1.22-.44-1.76-.74-.54-.3-1-.7-1.36-1.19-.36-.49-.54-1.13-.54-1.93,0-1.22.42-2.19,1.26-2.92.84-.73,2.08-1.09,3.73-1.09,1.39,0,2.68.27,3.86.82l-.19,1.92c-.61-.26-1.24-.45-1.88-.58s-1.26-.19-1.84-.19c-.86,0-1.54.17-2.04.52-.5.34-.74.81-.74,1.4,0,.51.18.91.54,1.19s.81.52,1.34.73c.54.21,1.12.4,1.75.59.63.18,1.22.43,1.75.73.54.3.98.71,1.34,1.21.36.5.54,1.17.54,2Z" style="fill: #f6f6f6; stroke-width: 0px;"/>
  <path d="m109.01,17.57l-.07-.02c-.42.61-1,1.09-1.74,1.45-.74.36-1.58.54-2.51.54-.66,0-1.25-.09-1.79-.26s-1-.45-1.38-.82c-.38-.37-.68-.84-.9-1.43-.22-.58-.32-1.28-.32-2.08,0-1.36.43-2.42,1.28-3.19s2.14-1.15,3.85-1.15c.61,0,1.2.05,1.76.16.57.1,1.08.24,1.52.4v-1.42c0-1.14-.26-1.93-.79-2.38-.53-.45-1.38-.67-2.54-.67-.77,0-1.47.07-2.1.2-.63.14-1.27.36-1.91.66l-.22-1.9c1.36-.62,2.9-.94,4.61-.94.94,0,1.74.1,2.4.31.66.21,1.19.53,1.61.96.42.43.72.98.9,1.66.18.67.28,1.48.28,2.42v9.24h-1.73l-.22-1.75Zm-.31-4.78c-.18-.11-.52-.23-1.02-.35-.5-.12-1.12-.18-1.84-.18-1.2,0-2.07.23-2.6.68s-.8,1.12-.8,1.98c0,.51.07.94.22,1.28.14.34.34.62.6.84.26.22.56.37.91.47.35.1.74.14,1.15.14.45,0,.88-.07,1.28-.2.41-.14.77-.32,1.08-.54s.56-.48.74-.77.28-.58.28-.89v-2.47Z" style="fill: #f6f6f6; stroke-width: 0px;"/>
  <path d="m130.87,19.32v-9.5c0-1.01-.26-1.75-.79-2.22-.53-.47-1.26-.71-2.18-.71-.77,0-1.43.22-1.99.67s-.84,1.12-.84,2.02v9.74h-2.26v-9.74c0-.48-.07-.89-.22-1.24-.14-.34-.34-.62-.6-.84-.26-.22-.55-.38-.89-.48s-.7-.16-1.1-.16c-.61,0-1.19.15-1.74.44-.55.3-.97.68-1.26,1.16v10.85h-2.28V5.06l1.63-.12.41,1.54h.07c.43-.53.98-.94,1.63-1.24.66-.3,1.34-.44,2.06-.44,1.9,0,3.19.73,3.86,2.18h.05c.42-.75.97-1.31,1.67-1.67.7-.36,1.48-.54,2.36-.54.69,0,1.32.1,1.9.31.58.21,1.07.52,1.48.94.41.42.72.94.95,1.56s.34,1.36.34,2.21v9.53h-2.26Z" style="fill: #f6f6f6; stroke-width: 0px;"/>
  <path d="m154.65,19.32l-7.03-13.03h-.05c-.02.16-.03.32-.04.49,0,.17-.03.33-.06.49l-1.68,12.05h-2.88l2.52-18h2.86l6.58,12.53h.05c0-.14,0-.3.02-.47s.04-.33.07-.49l1.61-11.57h2.86l-2.52,18h-2.3Z" style="fill: #f6f6f6; stroke-width: 0px;"/>
  <path d="m168.17,4.68c1.41,0,2.46.3,3.17.9.7.6,1.06,1.36,1.06,2.27,0,.75-.16,1.42-.48,2.02-.32.59-.82,1.12-1.51,1.57-.69.46-1.57.84-2.65,1.16-1.08.32-2.39.58-3.92.77-.02.13-.02.25-.02.36v.31c0,1.2.25,2.02.74,2.47.5.45,1.22.67,2.18.67,1.47,0,2.7-.42,3.67-1.25l.82,1.8c-.62.54-1.38.98-2.27,1.32s-1.91.5-3.06.5c-.77,0-1.46-.1-2.09-.3s-1.16-.52-1.6-.96c-.44-.44-.78-1-1.02-1.69-.24-.69-.36-1.52-.36-2.5,0-.32.02-.65.05-1,.03-.34.07-.7.12-1.07.35-2.45,1.13-4.29,2.34-5.52,1.21-1.23,2.82-1.85,4.84-1.85Zm-.29,2.23c-1.06,0-1.88.36-2.48,1.08-.6.72-1.04,1.84-1.33,3.36,1.06-.13,1.94-.3,2.66-.5.72-.21,1.3-.45,1.74-.72.44-.27.76-.57.95-.89.19-.32.29-.66.29-1.03s-.14-.68-.43-.92c-.29-.25-.75-.37-1.39-.37Z" style="fill: #f6f6f6; stroke-width: 0px;"/>
  <path d="m185.28,14.45c-.24,1.66-.9,2.94-1.97,3.82-1.07.88-2.59,1.32-4.56,1.32-1.74,0-3.04-.36-3.88-1.08-.84-.72-1.26-1.74-1.26-3.05,0-.3.02-.64.07-1.01l1.32-9.43,3.05-.17-1.34,9.58c-.02.11-.03.22-.04.31,0,.1-.01.19-.01.29,0,.69.2,1.21.59,1.56.39.35,1.01.53,1.86.53,1.82,0,2.87-.9,3.14-2.69l1.34-9.48h3.02l-1.34,9.5Z" style="fill: #f6f6f6; stroke-width: 0px;"/>
  <path d="m195.19,4.68c1.41,0,2.46.3,3.17.9.7.6,1.06,1.36,1.06,2.27,0,.75-.16,1.42-.48,2.02-.32.59-.82,1.12-1.51,1.57-.69.46-1.57.84-2.65,1.16-1.08.32-2.39.58-3.92.77-.02.13-.02.25-.02.36v.31c0,1.2.25,2.02.74,2.47.5.45,1.22.67,2.18.67,1.47,0,2.7-.42,3.67-1.25l.82,1.8c-.62.54-1.38.98-2.27,1.32s-1.91.5-3.06.5c-.77,0-1.46-.1-2.09-.3s-1.16-.52-1.6-.96c-.44-.44-.78-1-1.02-1.69-.24-.69-.36-1.52-.36-2.5,0-.32.02-.65.05-1,.03-.34.07-.7.12-1.07.35-2.45,1.13-4.29,2.34-5.52,1.21-1.23,2.82-1.85,4.84-1.85Zm-.29,2.23c-1.06,0-1.88.36-2.48,1.08-.6.72-1.04,1.84-1.33,3.36,1.06-.13,1.94-.3,2.66-.5.72-.21,1.3-.45,1.74-.72.44-.27.76-.57.95-.89.19-.32.29-.66.29-1.03s-.14-.68-.43-.92c-.29-.25-.75-.37-1.39-.37Z" style="fill: #f6f6f6; stroke-width: 0px;"/>
  <path d="m207,4.68c.67,0,1.34.08,2.02.23.67.15,1.26.38,1.78.68l-1.13,2.11c-.45-.22-.94-.39-1.48-.49s-1.08-.16-1.64-.16c-.75,0-1.36.17-1.81.52-.46.34-.68.78-.68,1.31,0,.38.14.7.43.94.29.24.65.46,1.09.65.44.19.91.39,1.42.59.5.2.98.44,1.42.72s.8.63,1.09,1.06c.29.42.43.96.43,1.62,0,.1,0,.19-.01.29,0,.1-.02.2-.04.31-.1.67-.28,1.28-.54,1.82-.26.54-.63,1.02-1.09,1.42-.46.4-1.03.71-1.69.92-.66.22-1.45.32-2.36.32s-1.74-.13-2.52-.4c-.78-.26-1.45-.6-1.99-1.02l.96-2.11c.5.42,1.07.72,1.72.92.65.2,1.29.3,1.93.3.9,0,1.57-.21,2.03-.62s.68-.93.68-1.54c0-.42-.14-.76-.43-1.03s-.65-.51-1.09-.72c-.44-.21-.91-.42-1.42-.62-.5-.21-.98-.45-1.42-.73-.44-.28-.8-.63-1.09-1.04-.29-.42-.43-.94-.43-1.58,0-1.41.51-2.54,1.54-3.38,1.02-.85,2.47-1.27,4.34-1.27Z" style="fill: #f6f6f6; stroke-width: 0px;"/>
  <path d="m227.25,1.01c.9,0,1.76.08,2.58.25s1.56.4,2.2.71l-.77,2.52c-.7-.27-1.4-.48-2.09-.62-.69-.14-1.39-.22-2.11-.22-.66,0-1.21.07-1.67.22s-.83.34-1.13.59c-.3.25-.51.54-.65.86-.14.33-.2.67-.2,1.02,0,.51.19.92.56,1.22.38.3.84.57,1.39.8.55.23,1.16.46,1.81.7.66.23,1.26.52,1.81.86.55.34,1.02.78,1.39,1.32.38.54.56,1.22.56,2.05,0,.98-.17,1.86-.52,2.64-.34.78-.84,1.45-1.48,2-.64.55-1.4.98-2.29,1.27-.89.3-1.87.44-2.94.44s-2-.12-2.88-.37c-.88-.25-1.66-.58-2.35-1l.82-2.59c.7.43,1.44.76,2.21,1s1.62.35,2.54.35c1.15,0,2.06-.26,2.72-.79.66-.53,1-1.27,1-2.23,0-.53-.19-.96-.56-1.28-.38-.33-.84-.62-1.39-.86-.55-.25-1.16-.49-1.81-.72-.66-.23-1.26-.52-1.81-.86-.55-.34-1.02-.78-1.39-1.3-.38-.52-.56-1.19-.56-2s.15-1.56.44-2.29c.3-.73.74-1.36,1.32-1.91.58-.54,1.31-.98,2.18-1.3.87-.32,1.89-.48,3.06-.48Z" style="fill: #f6f6f6; stroke-width: 0px;"/>
  <path d="m240.26,4.68c1.42,0,2.65.3,3.67.89l-1.1,2.11c-.37-.18-.73-.3-1.09-.38-.36-.08-.8-.12-1.31-.12-1.18,0-2.14.38-2.87,1.15-.73.77-1.22,2.06-1.48,3.86-.1.67-.14,1.27-.14,1.8,0,.61.06,1.12.19,1.54.13.42.31.75.54,1,.23.25.52.42.85.53.34.1.71.16,1.13.16.62,0,1.19-.1,1.69-.31s.96-.5,1.38-.86l.79,1.78c-.67.61-1.39,1.06-2.15,1.34-.76.29-1.64.43-2.65.43-1.49,0-2.67-.43-3.54-1.28-.87-.86-1.31-2.24-1.31-4.16,0-.32.01-.65.04-1,.02-.34.07-.71.13-1.09.34-2.48,1.12-4.33,2.35-5.54,1.23-1.22,2.86-1.82,4.87-1.82Z" style="fill: #f6f6f6; stroke-width: 0px;"/>
  <path d="m253.17,19.32l1.25-8.93c.03-.21.06-.4.07-.58.02-.18.02-.35.02-.53,0-.77-.17-1.31-.5-1.62s-.84-.47-1.51-.47c-.99,0-1.82.34-2.5,1.03-.67.69-1.1,1.64-1.27,2.86l-1.15,8.23h-3.02l2.64-18.84,3.05-.19-.7,4.99c-.03.16-.06.32-.08.49-.02.17-.05.32-.08.47l.02.02c1.14-1.06,2.54-1.58,4.22-1.58,2.61,0,3.91,1.38,3.91,4.15,0,.22,0,.46-.02.71-.02.25-.04.51-.07.78l-1.25,9h-3.02Z" style="fill: #f6f6f6; stroke-width: 0px;"/>
  <path d="m268.17,4.7c.4,0,.76.01,1.07.04.31.02.6.05.88.08.27.03.55.06.83.08s.58.04.9.04h.74l-2.02,14.38h-2.33l-.05-.77c-.02-.16-.02-.32-.02-.48v-.5l-.05-.02c-.61.7-1.3,1.22-2.08,1.54-.78.32-1.6.48-2.46.48-1.39,0-2.45-.38-3.17-1.13-.72-.75-1.08-1.95-1.08-3.6,0-1.52.21-2.9.64-4.14.42-1.24,1.02-2.3,1.79-3.19.77-.89,1.7-1.58,2.78-2.06,1.09-.49,2.3-.73,3.62-.73Zm-3.55,12.5c.96,0,1.78-.34,2.47-1.03.69-.69,1.12-1.63,1.3-2.83l.86-6.14c-.22-.03-.45-.06-.67-.07-.22-.02-.48-.02-.77-.02-1.42,0-2.58.46-3.48,1.39-.9.93-1.48,2.37-1.75,4.32-.1.67-.14,1.26-.14,1.78,0,.96.18,1.64.54,2.03.36.39.91.59,1.64.59Z" style="fill: #f6f6f6; stroke-width: 0px;"/>
  <path d="m274.75,5.06h1.85c.13-.9.34-1.66.65-2.3.3-.64.73-1.16,1.28-1.57.55-.41,1.24-.71,2.06-.9.82-.19,1.83-.29,3.01-.29l-.14,2.11c-.59,0-1.11.04-1.56.11-.45.07-.83.22-1.14.43-.31.22-.56.52-.76.9-.19.38-.33.89-.41,1.51h3.53l-.41,2.06h-3.41l-1.7,12.19h-3l1.7-12.19h-1.94l.38-2.06Z" style="fill: #f6f6f6; stroke-width: 0px;"/>
  <path d="m283.44,5.06h1.85c.13-.9.34-1.66.65-2.3.3-.64.73-1.16,1.28-1.57.55-.41,1.24-.71,2.06-.9.82-.19,1.83-.29,3.01-.29l-.14,2.11c-.59,0-1.11.04-1.56.11-.45.07-.83.22-1.14.43-.31.22-.56.52-.76.9-.19.38-.33.89-.41,1.51h3.53l-.41,2.06h-3.41l-1.7,12.19h-3l1.7-12.19h-1.94l.38-2.06Z" style="fill: #f6f6f6; stroke-width: 0px;"/>
  <path d="m298.65,4.68c1.41,0,2.46.3,3.17.9.7.6,1.06,1.36,1.06,2.27,0,.75-.16,1.42-.48,2.02-.32.59-.82,1.12-1.51,1.57-.69.46-1.57.84-2.65,1.16-1.08.32-2.39.58-3.92.77-.02.13-.02.25-.02.36v.31c0,1.2.25,2.02.74,2.47.5.45,1.22.67,2.18.67,1.47,0,2.7-.42,3.67-1.25l.82,1.8c-.62.54-1.38.98-2.27,1.32s-1.91.5-3.06.5c-.77,0-1.46-.1-2.09-.3s-1.16-.52-1.6-.96c-.44-.44-.78-1-1.02-1.69-.24-.69-.36-1.52-.36-2.5,0-.32.02-.65.05-1,.03-.34.07-.7.12-1.07.35-2.45,1.13-4.29,2.34-5.52,1.21-1.23,2.82-1.85,4.84-1.85Zm-.29,2.23c-1.06,0-1.88.36-2.48,1.08-.6.72-1.04,1.84-1.33,3.36,1.06-.13,1.94-.3,2.66-.5.72-.21,1.3-.45,1.74-.72.44-.27.76-.57.95-.89.19-.32.29-.66.29-1.03s-.14-.68-.43-.92c-.29-.25-.75-.37-1.39-.37Z" style="fill: #f6f6f6; stroke-width: 0px;"/>
  <path d="m313.58,10.42c.03-.19.06-.38.07-.58.02-.19.02-.37.02-.53,0-.78-.17-1.33-.5-1.64s-.84-.47-1.51-.47c-1.02,0-1.87.36-2.54,1.08-.67.72-1.1,1.72-1.27,3l-1.13,8.04h-3l1.99-14.3,2.35-.17.05.84c.02.16.03.32.04.48,0,.16.01.32.01.48l.05.02c1.14-1.33,2.66-1.99,4.56-1.99,2.62,0,3.94,1.38,3.94,4.13,0,.22-.01.46-.04.72-.02.26-.05.52-.08.79l-1.25,9h-3l1.25-8.9Z" style="fill: #f6f6f6; stroke-width: 0px;"/>
</svg>